<svg id="Livello_1" data-name="Livello 1" xmlns="http://www.w3.org/2000/svg" viewBox="0 0 16.01 16.01">
  <defs>
    <style>
      .cls-1 {
        fill: #fff;
      }

      .cls-2, .cls-3 {
        fill: none;
        stroke: #fff;
        stroke-miterlimit: 10;
      }

      .cls-2 {
        stroke-width: 0.01px;
      }
    </style>
  </defs>
  <title>disk-space-symbolic</title>
  <path class="cls-1" d="M2.75,15V1a.75.75,0,0,0-1.5,0V15a.75.75,0,0,0,1.5,0Z" transform="translate(0.01 0.01)" />
  <path class="cls-1" d="M14.75,15V1a.75.75,0,0,0-1.5,0V15a.75.75,0,0,0,1.5,0Z" transform="translate(0.01 0.01)" />
  <path class="cls-1" d="M2,15.75H14a.75.75,0,0,0,0-1.5H2a.75.75,0,0,0,0,1.5Z" transform="translate(0.01 0.01)" />
  <path class="cls-1" d="M2,1.75H14a.75.75,0,0,0,0-1.5H2a.75.75,0,0,0,0,1.5H14a.75.75,0,0,0,0-1.5H2A.75.75,0,0,0,2,1.75Z" transform="translate(0.01 0.01)" />
  <path class="cls-1" d="M10.25,6.72a2.81,2.81,0,0,1,0,.29c0,.21,0-.13,0,0l0,.12a2.29,2.29,0,0,1-.07.28.88.88,0,0,1-.05.15c0,.05-.08.17,0,0A4.45,4.45,0,0,1,9.85,8a.76.76,0,0,0-.08.11l.05-.07,0,.06a1.8,1.8,0,0,1-.19.2,1.71,1.71,0,0,1-.2.18l-.06,0,.09-.07-.13.09a4.53,4.53,0,0,1-.48.27c.2-.1.08,0,0,0l-.15,0-.27.07L8.3,9c-.15,0,.19,0,0,0L8,9a.76.76,0,0,0-.75.75.77.77,0,0,0,.75.75,3.76,3.76,0,0,0,3.75-3.75.75.75,0,1,0-1.5,0Z" transform="translate(0.01 0.01)" />
  <path class="cls-1" d="M11.75,6.72A3.76,3.76,0,0,0,8,3a.75.75,0,0,0,0,1.5h.29c.21,0-.13,0,0,0l.12,0,.27.08.15,0c.05,0,.17.08,0,0a4.45,4.45,0,0,1,.48.26L9.4,5l-.07-.06.06.05a1.8,1.8,0,0,1,.2.19,1.8,1.8,0,0,1,.19.2l0,.06L9.76,5.3s.06.08.09.13a4.45,4.45,0,0,1,.26.48c-.1-.2,0-.08,0,0a.88.88,0,0,1,.05.15,2.68,2.68,0,0,1,.07.27l0,.12c0,.15,0-.2,0,0a3,3,0,0,1,0,.31.76.76,0,0,0,.75.75.77.77,0,0,0,.75-.75Z" transform="translate(0.01 0.01)" />
  <path class="cls-1" d="M5.75,6.72a2.71,2.71,0,0,1,0-.29c0-.21,0,.13,0,0l0-.12A2.68,2.68,0,0,1,5.86,6a.88.88,0,0,1,0-.15c0-.06.08-.17,0,0a4.45,4.45,0,0,1,.26-.48l.08-.11-.05.07,0-.06a1.8,1.8,0,0,1,.19-.2,1.8,1.8,0,0,1,.2-.19l.06-.05L6.58,5a.6.6,0,0,0,.13-.09,4.45,4.45,0,0,1,.48-.26c-.2.1-.08,0,0,0l.15,0,.27-.08.12,0c.15,0-.19,0,0,0H8A.75.75,0,0,0,8,3,3.76,3.76,0,0,0,4.25,6.72a.75.75,0,0,0,1.5,0Z" transform="translate(0.01 0.01)" />
  <line class="cls-2" x1="0.01" y1="0.01" x2="0.01" y2="16.01" />
  <line class="cls-2" x1="16.01" y1="0.01" x2="16.01" y2="16.01" />
  <line class="cls-2" x1="0.01" y1="0.01" x2="16.01" y2="0.01" />
  <line class="cls-2" x1="0.01" y1="16.01" x2="16.01" y2="16.01" />
  <line class="cls-3" x1="7.56" y1="10.46" x2="7.56" y2="6.66" />
  <line class="cls-3" x1="4.26" y1="7.11" x2="8.05" y2="7.11" />
</svg>
