<?xml version="1.0" encoding="UTF-8" standalone="no"?>
<svg
   width="16px"
   height="16px"
   viewBox="0 0 16 16"
   version="1.1"
   id="svg13"
   sodipodi:docname="disk-stats-symbolic.svg"
   inkscape:version="1.1.1 (3bf5ae0d25, 2021-09-20)"
   xmlns:inkscape="http://www.inkscape.org/namespaces/inkscape"
   xmlns:sodipodi="http://sodipodi.sourceforge.net/DTD/sodipodi-0.dtd"
   xmlns="http://www.w3.org/2000/svg"
   xmlns:svg="http://www.w3.org/2000/svg">
  <defs
     id="defs17">
    <inkscape:path-effect
       effect="bspline"
       id="path-effect2601"
       is_visible="true"
       lpeversion="1"
       weight="33.333333"
       steps="2"
       helper_size="0"
       apply_no_weight="true"
       apply_with_weight="true"
       only_selected="false" />
  </defs>
  <sodipodi:namedview
     id="namedview15"
     pagecolor="#ffffff"
     bordercolor="#666666"
     borderopacity="1.0"
     inkscape:pageshadow="2"
     inkscape:pageopacity="0.0"
     inkscape:pagecheckerboard="0"
     showgrid="false"
     inkscape:zoom="32"
     inkscape:cx="12.765625"
     inkscape:cy="8.328125"
     inkscape:window-width="1852"
     inkscape:window-height="1016"
     inkscape:window-x="0"
     inkscape:window-y="0"
     inkscape:window-maximized="1"
     inkscape:current-layer="g8595" />
  <g
     id="g8595"
     transform="translate(0.42966752,-1.3299238)">
    <path
       d="m 2.7695516,1.3299238 c -1.2031251,0 -2.19921912,1 -2.19921912,2.199219 V 15.130706 c 0,1.199219 0.99609402,2.199219 2.19921912,2.199219 H 12.37502 c 1.203124,0 2.195312,-1 2.195312,-2.199219 V 3.5291428 c 0,-1.199219 -0.992188,-2.199219 -2.195312,-2.199219 z m 0,2 H 12.37502 c 0.125,0 0.195312,0.070312 0.195312,0.199219 V 15.130706 c 0,0.128907 -0.07031,0.199219 -0.195312,0.199219 H 2.7695516 c -0.1250001,0 -0.1992191,-0.07031 -0.1992191,-0.199219 V 3.5291428 c 0,-0.128907 0.07422,-0.199219 0.1992191,-0.199219 z m 0,0"
       fill="#2e3436"
       id="path147" />
    <path
       d="m 7.5703325,4.3299238 c 2.2109375,0 3.9999995,1.789062 3.9999995,4 0,2.2109382 -1.790291,4.0000002 -3.9999995,4.0000002 l 0,-4.0000002 h -4 c 0,-2.210938 1.789062,-4 4,-4 z"
       fill="#2e3436"
       id="path145"
       sodipodi:nodetypes="sscccs" />
  </g>
</svg>
