<?xml version="1.0" encoding="UTF-8" standalone="no"?>
<svg
   width="16px"
   height="16px"
   viewBox="0 0 16 16"
   version="1.1"
   id="svg13"
   sodipodi:docname="disk-stat-symbolic.svg"
   inkscape:version="1.1.1 (3bf5ae0d25, 2021-09-20)"
   xmlns:inkscape="http://www.inkscape.org/namespaces/inkscape"
   xmlns:sodipodi="http://sodipodi.sourceforge.net/DTD/sodipodi-0.dtd"
   xmlns="http://www.w3.org/2000/svg"
   xmlns:svg="http://www.w3.org/2000/svg">
  <defs
     id="defs17" />
  <sodipodi:namedview
     id="namedview15"
     pagecolor="#ffffff"
     bordercolor="#666666"
     borderopacity="1.0"
     inkscape:pageshadow="2"
     inkscape:pageopacity="0.0"
     inkscape:pagecheckerboard="0"
     showgrid="false"
     inkscape:zoom="45.254834"
     inkscape:cx="1.6683301"
     inkscape:cy="6.6622717"
     inkscape:window-width="1852"
     inkscape:window-height="1016"
     inkscape:window-x="0"
     inkscape:window-y="0"
     inkscape:window-maximized="1"
     inkscape:current-layer="surface5623" />
  <g
     id="surface5623">
    <path
       d="M 3.1992191,0 C 1.996094,0 1,0.99999999 1,2.199219 v 11.601563 c 0,1.199219 0.996094,2.199219 2.1992191,2.199219 h 9.6054689 c 1.203124,0 2.195312,-1 2.195312,-2.199219 V 2.199219 C 15,0.99999999 14.007812,0 12.804688,0 Z m 0,2 H 12.804688 C 12.929688,2 13,2.070312 13,2.199219 v 11.601563 c 0,0.128907 -0.07031,0.199219 -0.195312,0.199219 H 3.1992191 C 3.074219,14.000001 3,13.929691 3,13.800782 V 2.199219 C 3,2.070312 3.07422,2 3.1992191,2 Z m 0,0"
       fill="#2e3436"
       id="path147" />
    <path
       d="m 8,3 c 2.210938,0 4,1.789062 4,4 0,2.210938 -1.790291,4 -4,4 H 4 V 7 C 4,4.789062 5.789062,3 8,3 Z M 8,5 C 6.894531,5 6,5.894531 6,7 6,8.105469 6.894531,9 8,9 9.105469,9 10,8.105469 10,7 10,5.894531 9.105469,5 8,5 Z"
       fill="#2e3436"
       id="path145"
       sodipodi:nodetypes="ssccsssssss" />
  </g>
</svg>
