<?xml version="1.0" encoding="UTF-8" standalone="no"?>
<svg
   width="16px"
   height="16px"
   viewBox="0 0 16 16"
   version="1.1"
   id="svg13"
   sodipodi:docname="gpu-symbolic.svg"
   inkscape:version="1.2.2 (732a01da63, 2022-12-09, custom)"
   xmlns:inkscape="http://www.inkscape.org/namespaces/inkscape"
   xmlns:sodipodi="http://sodipodi.sourceforge.net/DTD/sodipodi-0.dtd"
   xmlns="http://www.w3.org/2000/svg"
   xmlns:svg="http://www.w3.org/2000/svg">
  <defs
     id="defs17" />
  <sodipodi:namedview
     id="namedview15"
     pagecolor="#ffffff"
     bordercolor="#666666"
     borderopacity="1.0"
     inkscape:pageshadow="2"
     inkscape:pageopacity="0.0"
     inkscape:pagecheckerboard="0"
     showgrid="false"
     inkscape:zoom="6.9579307"
     inkscape:cx="4.0241849"
     inkscape:cy="37.870455"
     inkscape:window-width="1846"
     inkscape:window-height="1016"
     inkscape:window-x="74"
     inkscape:window-y="27"
     inkscape:window-maximized="1"
     inkscape:current-layer="g5023"
     inkscape:showpageshadow="2"
     inkscape:deskcolor="#d1d1d1"
     showguides="true" />
  <g
     id="g5023"
     transform="translate(0.42966752,-1.3299238)">
    <path
       d="m 5.7692754,1.3299232 c -1.2031251,0 -2.199,1 -2.199,2.199219 V 15.130923 c 0,1.199219 0.9958749,2.199001 2.199,2.199001 h 7.6061136 c 1.203124,0 2.195001,-1 2.195001,-2.199219 V 3.5289232 c 0,-1.199219 -0.991877,-2.199 -2.195001,-2.199 z m 0,2 h 7.6061136 c 0.125,0 0.195,0.070312 0.195,0.199219 V 15.130705 c 0,0.128907 -0.07,0.199218 -0.195,0.199218 l -7.6061136,10e-7 c -0.1250001,0 -0.199,-0.07009 -0.199,-0.199001 V 3.5291422 c 0,-0.128907 0.074001,-0.199219 0.199,-0.199219 z"
       fill="#2e3436"
       id="path147-3"
       sodipodi:nodetypes="ssssssssssssssssss" />
    <path
       id="path147-3-4"
       d="M 1.7695512 3.3299238 C 0.56642733 3.3299238 -0.42966752 4.3299247 -0.42966752 5.5291425 L -0.42966752 9.130705 C -0.42966752 10.329923 0.56642733 11.329924 1.7695512 11.329924 L 3.37502 11.329924 C 4.5781427 11.329924 5.5703325 10.329923 5.5703325 9.130705 L 5.5703325 5.5291425 C 5.5703325 4.3299247 4.5781427 3.3299238 3.37502 3.3299238 L 1.7695512 3.3299238 z M 1.7695512 5.3299238 L 3.37502 5.3299238 C 3.5000199 5.3299238 3.5703325 5.4002357 3.5703325 5.5291425 L 3.5703325 6.3299238 L 1.5703325 6.3299238 L 1.5703325 5.5291425 C 1.5703325 5.4002357 1.6445524 5.3299238 1.7695512 5.3299238 z M 1.5703325 8.3299238 L 3.5703325 8.3299238 L 3.5703325 9.130705 C 3.5703325 9.2596119 3.5000199 9.3299237 3.37502 9.3299238 L 1.7695512 9.3299238 C 1.6445513 9.3299239 1.5703325 9.2596159 1.5703325 9.130705 L 1.5703325 8.3299238 z "
       style="fill:#2e3436;fill-opacity:1" />
    <path
       id="path1226"
       style="fill:#2e3436;fill-opacity:1;stroke-width:0.875001"
       d="M 8.6644662,5.4491831 A 3.5000006,3.5000002 0 0 0 6.1895921,9.7357903 3.5000006,3.5000002 0 0 0 10.4762,12.210664 3.5000006,3.5000002 0 0 0 12.951073,7.9240573 3.5000006,3.5000002 0 0 0 8.6644662,5.4491831 Z M 9.323256,6.2174515 a 2.6250004,2.6250001 0 0 1 1.162465,0.1520676 L 9.7195729,7.6965254 Z M 8.4785135,6.4455689 8.8743882,7.9229922 7.5515677,7.1592613 A 2.6250004,2.6250001 0 0 1 8.4785135,6.4455689 Z M 11.243413,6.8069724 A 2.6250004,2.6250001 0 0 1 11.956339,7.737662 L 10.477266,8.1339787 Z M 7.1141142,7.9169529 8.4369345,8.6806834 6.9595113,9.0765577 A 2.6250004,2.6250001 0 0 1 7.1141142,7.9169529 Z m 2.1810189,0.00475 A 0.87500018,0.87500004 0 0 1 10.366784,8.5404364 0.87500018,0.87500004 0 0 1 9.7480667,9.6120882 0.87500018,0.87500004 0 0 1 8.6764144,8.9933696 0.87500018,0.87500004 0 0 1 9.2951331,7.9217183 Z M 7.185978,9.921743 8.6634012,9.5258685 7.8984622,10.850782 A 2.6250004,2.6250001 0 0 1 7.185978,9.921743 Z M 10.703732,8.9791639 12.182806,8.5828472 A 2.6250004,2.6250001 0 0 1 12.028645,9.7441029 Z M 9.4210927,9.963322 9.8169673,11.440746 A 2.6250004,2.6250001 0 0 1 8.6561535,11.288234 Z m 0.8451853,-0.2264668 1.324914,0.7649388 a 2.6250004,2.6250001 0 0 1 -0.928598,0.714134 z" />
  </g>
</svg>
