<?xml version="1.0" encoding="UTF-8" standalone="no"?>
<svg
   width="16px"
   height="16px"
   viewBox="0 0 16 16"
   version="1.1"
   id="svg13"
   sodipodi:docname="swap-symbolic.svg"
   inkscape:version="1.1.1 (3bf5ae0d25, 2021-09-20)"
   xmlns:inkscape="http://www.inkscape.org/namespaces/inkscape"
   xmlns:sodipodi="http://sodipodi.sourceforge.net/DTD/sodipodi-0.dtd"
   xmlns="http://www.w3.org/2000/svg"
   xmlns:svg="http://www.w3.org/2000/svg">
  <defs
     id="defs17">
    <clipPath
       id="A">
      <path
         d="M 0,0 H 1024 V 800 H 0 Z"
         id="path106" />
    </clipPath>
    <mask
       id="z">
      <g
         filter="url(#a)"
         id="g103">
        <path
           d="M 0,0 H 16 V 16 H 0 Z"
           fill-opacity="0.5"
           id="path101" />
      </g>
    </mask>
    <filter
       id="a"
       height="1"
       width="1"
       x="0"
       y="0">
      <feColorMatrix
         in="SourceGraphic"
         type="matrix"
         values="0 0 0 0 1 0 0 0 0 1 0 0 0 0 1 0 0 0 1 0"
         id="feColorMatrix2" />
    </filter>
    <clipPath
       id="y">
      <path
         d="M 0,0 H 1024 V 800 H 0 Z"
         id="path98" />
    </clipPath>
    <mask
       id="x">
      <g
         filter="url(#a)"
         id="g95">
        <path
           d="M 0,0 H 16 V 16 H 0 Z"
           fill-opacity="0.5"
           id="path93" />
      </g>
    </mask>
    <filter
       id="filter1006"
       height="1"
       width="1"
       x="0"
       y="0">
      <feColorMatrix
         in="SourceGraphic"
         type="matrix"
         values="0 0 0 0 1 0 0 0 0 1 0 0 0 0 1 0 0 0 1 0"
         id="feColorMatrix1004" />
    </filter>
    <clipPath
       id="w">
      <path
         d="M 0,0 H 1024 V 800 H 0 Z"
         id="path90" />
    </clipPath>
    <mask
       id="v">
      <g
         filter="url(#a)"
         id="g87">
        <path
           d="M 0,0 H 16 V 16 H 0 Z"
           fill-opacity="0.4"
           id="path85" />
      </g>
    </mask>
    <filter
       id="filter1015"
       height="1"
       width="1"
       x="0"
       y="0">
      <feColorMatrix
         in="SourceGraphic"
         type="matrix"
         values="0 0 0 0 1 0 0 0 0 1 0 0 0 0 1 0 0 0 1 0"
         id="feColorMatrix1013" />
    </filter>
    <clipPath
       id="u">
      <path
         d="M 0,0 H 1024 V 800 H 0 Z"
         id="path82" />
    </clipPath>
    <mask
       id="t">
      <g
         filter="url(#a)"
         id="g79">
        <path
           d="M 0,0 H 16 V 16 H 0 Z"
           fill-opacity="0.4"
           id="path77" />
      </g>
    </mask>
    <filter
       id="filter1024"
       height="1"
       width="1"
       x="0"
       y="0">
      <feColorMatrix
         in="SourceGraphic"
         type="matrix"
         values="0 0 0 0 1 0 0 0 0 1 0 0 0 0 1 0 0 0 1 0"
         id="feColorMatrix1022" />
    </filter>
    <clipPath
       id="s">
      <path
         d="M 0,0 H 1024 V 800 H 0 Z"
         id="path74" />
    </clipPath>
    <mask
       id="r">
      <g
         filter="url(#a)"
         id="g71">
        <path
           d="M 0,0 H 16 V 16 H 0 Z"
           fill-opacity="0.5"
           id="path69" />
      </g>
    </mask>
    <filter
       id="filter1033"
       height="1"
       width="1"
       x="0"
       y="0">
      <feColorMatrix
         in="SourceGraphic"
         type="matrix"
         values="0 0 0 0 1 0 0 0 0 1 0 0 0 0 1 0 0 0 1 0"
         id="feColorMatrix1031" />
    </filter>
    <clipPath
       id="q">
      <path
         d="M 0,0 H 1024 V 800 H 0 Z"
         id="path66" />
    </clipPath>
    <mask
       id="p">
      <g
         filter="url(#a)"
         id="g63">
        <path
           d="M 0,0 H 16 V 16 H 0 Z"
           fill-opacity="0.3"
           id="path61" />
      </g>
    </mask>
    <filter
       id="filter1042"
       height="1"
       width="1"
       x="0"
       y="0">
      <feColorMatrix
         in="SourceGraphic"
         type="matrix"
         values="0 0 0 0 1 0 0 0 0 1 0 0 0 0 1 0 0 0 1 0"
         id="feColorMatrix1040" />
    </filter>
    <clipPath
       id="o">
      <path
         d="M 0,0 H 1024 V 800 H 0 Z"
         id="path58" />
    </clipPath>
    <mask
       id="n">
      <g
         filter="url(#a)"
         id="g55">
        <path
           d="M 0,0 H 16 V 16 H 0 Z"
           fill-opacity="0.05"
           id="path53" />
      </g>
    </mask>
    <filter
       id="filter1051"
       height="1"
       width="1"
       x="0"
       y="0">
      <feColorMatrix
         in="SourceGraphic"
         type="matrix"
         values="0 0 0 0 1 0 0 0 0 1 0 0 0 0 1 0 0 0 1 0"
         id="feColorMatrix1049" />
    </filter>
    <clipPath
       id="m">
      <path
         d="M 0,0 H 1024 V 800 H 0 Z"
         id="path50" />
    </clipPath>
    <mask
       id="l">
      <g
         filter="url(#a)"
         id="g47">
        <path
           d="M 0,0 H 16 V 16 H 0 Z"
           fill-opacity="0.05"
           id="path45" />
      </g>
    </mask>
    <filter
       id="filter1060"
       height="1"
       width="1"
       x="0"
       y="0">
      <feColorMatrix
         in="SourceGraphic"
         type="matrix"
         values="0 0 0 0 1 0 0 0 0 1 0 0 0 0 1 0 0 0 1 0"
         id="feColorMatrix1058" />
    </filter>
    <clipPath
       id="k">
      <path
         d="M 0,0 H 1024 V 800 H 0 Z"
         id="path42" />
    </clipPath>
    <mask
       id="j">
      <g
         filter="url(#a)"
         id="g39">
        <path
           d="M 0,0 H 16 V 16 H 0 Z"
           fill-opacity="0.05"
           id="path37" />
      </g>
    </mask>
    <filter
       id="filter1069"
       height="1"
       width="1"
       x="0"
       y="0">
      <feColorMatrix
         in="SourceGraphic"
         type="matrix"
         values="0 0 0 0 1 0 0 0 0 1 0 0 0 0 1 0 0 0 1 0"
         id="feColorMatrix1067" />
    </filter>
    <clipPath
       id="i">
      <path
         d="M 0,0 H 1024 V 800 H 0 Z"
         id="path34" />
    </clipPath>
    <mask
       id="h">
      <g
         filter="url(#a)"
         id="g31">
        <path
           d="M 0,0 H 16 V 16 H 0 Z"
           fill-opacity="0.05"
           id="path29" />
      </g>
    </mask>
    <filter
       id="filter1078"
       height="1"
       width="1"
       x="0"
       y="0">
      <feColorMatrix
         in="SourceGraphic"
         type="matrix"
         values="0 0 0 0 1 0 0 0 0 1 0 0 0 0 1 0 0 0 1 0"
         id="feColorMatrix1076" />
    </filter>
    <clipPath
       id="g">
      <path
         d="M 0,0 H 1024 V 800 H 0 Z"
         id="path26" />
    </clipPath>
    <mask
       id="f">
      <g
         filter="url(#a)"
         id="g23">
        <path
           d="M 0,0 H 16 V 16 H 0 Z"
           fill-opacity="0.05"
           id="path21" />
      </g>
    </mask>
    <filter
       id="filter1087"
       height="1"
       width="1"
       x="0"
       y="0">
      <feColorMatrix
         in="SourceGraphic"
         type="matrix"
         values="0 0 0 0 1 0 0 0 0 1 0 0 0 0 1 0 0 0 1 0"
         id="feColorMatrix1085" />
    </filter>
    <clipPath
       id="e">
      <path
         d="M 0,0 H 1024 V 800 H 0 Z"
         id="path18" />
    </clipPath>
    <mask
       id="d">
      <g
         filter="url(#a)"
         id="g15">
        <path
           d="M 0,0 H 16 V 16 H 0 Z"
           fill-opacity="0.05"
           id="path13" />
      </g>
    </mask>
    <filter
       id="filter1096"
       height="1"
       width="1"
       x="0"
       y="0">
      <feColorMatrix
         in="SourceGraphic"
         type="matrix"
         values="0 0 0 0 1 0 0 0 0 1 0 0 0 0 1 0 0 0 1 0"
         id="feColorMatrix1094" />
    </filter>
    <clipPath
       id="c">
      <path
         d="M 0,0 H 1024 V 800 H 0 Z"
         id="path10" />
    </clipPath>
    <mask
       id="b">
      <g
         filter="url(#a)"
         id="g7">
        <path
           d="M 0,0 H 16 V 16 H 0 Z"
           fill-opacity="0.3"
           id="path5" />
      </g>
    </mask>
    <filter
       id="filter1105"
       height="1"
       width="1"
       x="0"
       y="0">
      <feColorMatrix
         in="SourceGraphic"
         type="matrix"
         values="0 0 0 0 1 0 0 0 0 1 0 0 0 0 1 0 0 0 1 0"
         id="feColorMatrix1103" />
    </filter>
  </defs>
  <sodipodi:namedview
     id="namedview15"
     pagecolor="#ffffff"
     bordercolor="#666666"
     borderopacity="1.0"
     inkscape:pageshadow="2"
     inkscape:pageopacity="0.0"
     inkscape:pagecheckerboard="0"
     showgrid="false"
     inkscape:zoom="48.875"
     inkscape:cx="8.4194373"
     inkscape:cy="7.9079284"
     inkscape:window-width="1852"
     inkscape:window-height="1016"
     inkscape:window-x="0"
     inkscape:window-y="0"
     inkscape:window-maximized="1"
     inkscape:current-layer="g4514" />
  <g
     id="g4514"
     transform="translate(0.42955386,-1.3299238)">
    <path
       d="m 3.7694461,1.3299238 c -1.2031251,0 -2.199,1 -2.199,2.199219 V 15.130924 c 0,1.199219 0.9958749,2.199001 2.199,2.199001 H 11.37556 c 1.203124,0 2.195,-1 2.195,-2.199219 V 3.5289238 c 0,-1.199219 -0.991876,-2.199 -2.195,-2.199 z m 0,2 H 11.37556 c 0.125,0 0.195,0.070312 0.195,0.199219 V 15.130706 c 0,0.128907 -0.07,0.199218 -0.195,0.199218 l -7.6061139,10e-7 c -0.1250001,0 -0.199,-0.07009 -0.199,-0.199001 V 3.5291428 c 0,-0.128907 0.074001,-0.199219 0.199,-0.199219 z"
       fill="#2e3436"
       id="path147"
       sodipodi:nodetypes="ssssssssssssssssss" />
    <path
       d="M 0.57033248,4.3299238 H 2.6703325 v 2 H 0.57033248 c -1.00385681,0 -1.01449275,-2 0,-2 z"
       fill="#2e3436"
       id="path145"
       sodipodi:nodetypes="sccss"
       style="stroke-width:1.22474" />
    <path
       d="M 0.57033251,8.329924 H 2.6703325 v 2 H 0.57033251 c -1.00385681,0 -1.01449271,-2 0,-2 z"
       fill="#2e3436"
       id="path145-7"
       sodipodi:nodetypes="sccss"
       style="stroke-width:1.22474" />
    <path
       d="m 0.5703325,12.329924 h 2.1 v 2 h -2.1 c -1.00385681,0 -1.01449275,-2 0,-2 z"
       fill="#2e3436"
       id="path145-5"
       sodipodi:nodetypes="sccss"
       style="stroke-width:1.22474" />
    <path
       d="m 14.570414,6.3299238 h -2.100082 v -2 h 2.100082 c 1.003897,0 1.014534,2 0,2 z"
       fill="#2e3436"
       id="path145-3"
       sodipodi:nodetypes="sccss"
       style="stroke-width:1.22476" />
    <path
       d="M 14.570415,10.329923 H 12.470332 V 8.3299238 h 2.100083 c 1.003897,0 1.014534,1.9999992 0,1.9999992 z"
       fill="#2e3436"
       id="path145-7-5"
       sodipodi:nodetypes="sccss"
       style="stroke-width:1.22476" />
    <path
       d="m 14.570415,14.329923 h -2.100083 v -2 h 2.100083 c 1.003897,0 1.014534,2 0,2 z"
       fill="#2e3436"
       id="path145-5-6"
       sodipodi:nodetypes="sccss"
       style="stroke-width:1.22476" />
  </g>
  <path
     d="M 8.66765,4.9617561 C 8.6293638,4.9530985 8.5906812,4.9462453 8.5519894,4.9393961 8.4632411,4.925133 8.373687,4.9144364 8.2828912,4.9092381 7.5206834,4.848186 6.7663197,5.0915908 6.1835757,5.5845435 5.6947585,6.0010064 5.3852873,6.5480452 5.2548774,7.1336317 L 6.1900626,7.3449563 C 6.2778066,6.956663 6.4848666,6.5914998 6.8148801,6.3096856 7.6257688,5.621118 8.8206061,5.7263341 9.5095913,6.5354014 9.6763326,6.730199 9.7912657,6.9592712 9.8656314,7.1983373 L 9.1947713,7.0467417 C 8.9377309,6.988659 8.6807172,7.1509293 8.6226326,7.4079677 L 8.5171757,7.8746517 11.317269,8.5073905 11.95,5.7073017 11.483329,5.6018457 c -0.25705,-0.05808 -0.514056,0.1041886 -0.572154,0.3612256 L 10.73323,6.7505964 C 10.392452,5.842023 9.6154177,5.168261 8.6658269,4.9613441 Z m 0,0"
     fill="#2e3436"
     id="path109"
     style="stroke-width:0.478442" />
  <path
     d="m 7.3323533,11.040501 c 0.038293,0.0085 0.077034,0.01516 0.1155841,0.02274 0.088692,0.01447 0.1783141,0.02492 0.2690939,0.03013 0.762223,0.06096 1.5161755,-0.180584 2.0993337,-0.675358 0.488834,-0.416524 0.7983,-0.963569 0.928715,-1.5491538 L 9.8098861,8.6575193 C 9.7204037,9.0451888 9.5129033,9.412168 9.1851244,9.692568 8.3742335,10.381125 7.1793956,10.275926 6.4904132,9.466849 6.3236656,9.2720517 6.2087317,9.042979 6.1343774,8.8039133 L 6.8052327,8.9555065 C 7.0622712,9.0135909 7.3192871,8.8513211 7.3773698,8.5942833 L 7.4828264,8.1276008 4.6827375,7.4948638 4.05,10.294961 l 0.4666827,0.1054 c 0.257037,0.05816 0.5140538,-0.104206 0.5721355,-0.361225 L 5.2667756,9.2516487 c 0.3407665,0.9085723 1.1178067,1.5823393 2.0655777,1.7888453 z m 0,0"
     fill="#2e3436"
     id="path111"
     style="stroke-width:0.478442" />
  <g
     clip-path="url(#c)"
     mask="url(#b)"
     transform="matrix(0.35734237,0,0,0.35734237,-259.26459,-218.14947)"
     id="g115">
    <path
       d="m 562.46094,212.05859 h 10.44922 c -1.1836,0.49219 -1.29688,2.46094 0,3 h -10.44922 z m 0,0"
       fill="#2e3436"
       id="path113" />
  </g>
  <g
     clip-path="url(#e)"
     mask="url(#d)"
     transform="matrix(0.35734237,0,0,0.35734237,-259.26459,-218.14947)"
     id="g119">
    <path
       d="m 16,632 h 1 v 1 h -1 z m 0,0"
       fill="#2e3436"
       fill-rule="evenodd"
       id="path117" />
  </g>
  <g
     clip-path="url(#g)"
     mask="url(#f)"
     transform="matrix(0.35734237,0,0,0.35734237,-259.26459,-218.14947)"
     id="g123">
    <path
       d="m 17,631 h 1 v 1 h -1 z m 0,0"
       fill="#2e3436"
       fill-rule="evenodd"
       id="path121" />
  </g>
  <g
     clip-path="url(#i)"
     mask="url(#h)"
     transform="matrix(0.35734237,0,0,0.35734237,-259.26459,-218.14947)"
     id="g127">
    <path
       d="m 18,634 h 1 v 1 h -1 z m 0,0"
       fill="#2e3436"
       fill-rule="evenodd"
       id="path125" />
  </g>
  <g
     clip-path="url(#k)"
     mask="url(#j)"
     transform="matrix(0.35734237,0,0,0.35734237,-259.26459,-218.14947)"
     id="g131">
    <path
       d="m 16,634 h 1 v 1 h -1 z m 0,0"
       fill="#2e3436"
       fill-rule="evenodd"
       id="path129" />
  </g>
  <g
     clip-path="url(#m)"
     mask="url(#l)"
     transform="matrix(0.35734237,0,0,0.35734237,-259.26459,-218.14947)"
     id="g135">
    <path
       d="m 17,635 h 1 v 1 h -1 z m 0,0"
       fill="#2e3436"
       fill-rule="evenodd"
       id="path133" />
  </g>
  <g
     clip-path="url(#o)"
     mask="url(#n)"
     transform="matrix(0.35734237,0,0,0.35734237,-259.26459,-218.14947)"
     id="g139">
    <path
       d="m 19,635 h 1 v 1 h -1 z m 0,0"
       fill="#2e3436"
       fill-rule="evenodd"
       id="path137" />
  </g>
  <g
     clip-path="url(#q)"
     mask="url(#p)"
     transform="matrix(0.35734237,0,0,0.35734237,-259.26459,-218.14947)"
     id="g143">
    <path
       d="m 136,660 v 7 h 7 v -7 z m 0,0"
       fill="#2e3436"
       id="path141" />
  </g>
  <g
     clip-path="url(#s)"
     mask="url(#r)"
     transform="matrix(0.35734237,0,0,0.35734237,-259.26459,-218.14947)"
     id="g147">
    <path
       d="m 199,642 h 3 v 12 h -3 z m 0,0"
       fill="#2e3436"
       id="path145-36" />
  </g>
  <g
     clip-path="url(#u)"
     mask="url(#t)"
     transform="matrix(0.35734237,0,0,0.35734237,-259.26459,-218.14947)"
     id="g151">
    <path
       d="m 209.5,144.16016 c 0.27734,0 0.5,0.22265 0.5,0.5 v 1 c 0,0.27734 -0.22266,0.5 -0.5,0.5 -0.27734,0 -0.5,-0.22266 -0.5,-0.5 v -1 c 0,-0.27735 0.22266,-0.5 0.5,-0.5 z m 0,0"
       fill="#2e3436"
       id="path149" />
  </g>
  <g
     clip-path="url(#w)"
     mask="url(#v)"
     transform="matrix(0.35734237,0,0,0.35734237,-259.26459,-218.14947)"
     id="g155">
    <path
       d="m 206.5,144.16016 c 0.27734,0 0.5,0.22265 0.5,0.5 v 1 c 0,0.27734 -0.22266,0.5 -0.5,0.5 -0.27734,0 -0.5,-0.22266 -0.5,-0.5 v -1 c 0,-0.27735 0.22266,-0.5 0.5,-0.5 z m 0,0"
       fill="#2e3436"
       id="path153" />
  </g>
  <g
     clip-path="url(#y)"
     mask="url(#x)"
     transform="matrix(0.35734237,0,0,0.35734237,-259.26459,-218.14947)"
     id="g159">
    <path
       d="m 229.5,143.16016 c -0.54688,0 -1,0.45703 -1,1 0,0.54687 0.45312,1 1,1 0.54687,0 1,-0.45313 1,-1 0,-0.54297 -0.45313,-1 -1,-1 z m 0,0"
       fill="#2e3436"
       id="path157" />
  </g>
  <g
     clip-path="url(#A)"
     mask="url(#z)"
     transform="matrix(0.35734237,0,0,0.35734237,-259.26459,-218.14947)"
     id="g163">
    <path
       d="m 226.45312,143.16016 c -0.51953,0 -0.95312,0.43359 -0.95312,0.95312 v 0.0937 c 0,0.51953 0.43359,0.95313 0.95312,0.95313 h 0.0937 c 0.51954,0 0.95313,-0.4336 0.95313,-0.95313 v -0.0937 c 0,-0.51953 -0.43359,-0.95312 -0.95313,-0.95312 z m 0,0"
       fill="#2e3436"
       id="path161" />
  </g>
</svg>
