<svg id="Livello_1" data-name="Livello 1" xmlns="http://www.w3.org/2000/svg" viewBox="0 0 16.01 16.01">
  <defs>
    <style>
      .cls-1 {
        fill: none;
        stroke: #fff;
        stroke-miterlimit: 10;
        stroke-width: 0.01px;
      }

      .cls-2 {
        fill: #fff;
      }
    </style>
  </defs>
  <title>wlan-symbolic</title>
  <line class="cls-1" x1="0.01" y1="0.01" x2="0.01" y2="16.01"/>
  <line class="cls-1" x1="16.01" y1="0.01" x2="16.01" y2="16.01"/>
  <line class="cls-1" x1="0.01" y1="0.01" x2="16.01" y2="0.01"/>
  <line class="cls-1" x1="0.01" y1="16.01" x2="16.01" y2="16.01"/>
  <path class="cls-2" d="M1.58,6.16a9.18,9.18,0,0,1,12.85,0c.69.67,1.75-.39,1.06-1.06a10.71,10.71,0,0,0-15,0c-.69.68.37,1.74,1.06,1.07Z" transform="translate(0.01 0.01)"/>
  <path class="cls-2" d="M3.84,8.68a6,6,0,0,1,8.32,0c.69.68,1.76-.38,1.06-1.06a7.48,7.48,0,0,0-10.44,0c-.7.68.37,1.74,1.06,1.06Z" transform="translate(0.01 0.01)"/>
  <path class="cls-2" d="M5.74,11.29a2.74,2.74,0,0,1,.48-.39l.31-.19.17-.08,0,0a3.6,3.6,0,0,1,.66-.2l.19,0c.13,0-.17,0,.07,0l.34,0,.34,0c.05,0,.12,0,0,0l.19,0a5.12,5.12,0,0,1,.67.19c.12.05-.08,0,0,0l.18.09a3.07,3.07,0,0,1,.31.17,3.14,3.14,0,0,1,.51.42c.69.68,1.75-.38,1.06-1.06a4.76,4.76,0,0,0-6.64,0c-.69.68.37,1.74,1.06,1.06Z" transform="translate(0.01 0.01)"/>
  <path class="cls-2" d="M8.92,12.73a2.23,2.23,0,0,0-.24-.19,2.21,2.21,0,0,0-.27-.12.35.35,0,0,0-.11,0,1.54,1.54,0,0,0-.3,0H8l-.25,0a.23.23,0,0,0-.11,0,1.31,1.31,0,0,0-.27.12l-.19.15,0,0a.61.61,0,0,0-.15.24.59.59,0,0,0-.07.29.57.57,0,0,0,.07.29.61.61,0,0,0,.15.24.75.75,0,0,0,.53.22l.2,0a.7.7,0,0,0,.33-.2l0,0L8,13.86l.12-.07L8,13.87l.15,0-.2,0h.14l-.2,0,.15,0-.18-.08.12.07-.15-.11.05,0A.54.54,0,0,0,8.1,14a.73.73,0,0,0,.58,0,.54.54,0,0,0,.24-.16.75.75,0,0,0,.22-.53l0-.2a.79.79,0,0,0-.19-.33Z" transform="translate(0.01 0.01)"/>
</svg>
